<svg width="24" height="22" viewBox="0 0 24 22" fill="none" xmlns="http://www.w3.org/2000/svg">
<path d="M20.3169 1.81105C18.7869 0.974034 17.147 0.355369 15.432 0.00357875C15.4168 2.19345e-05 15.401 0.00231408 15.3868 0.0101382C15.3726 0.0179624 15.3608 0.0309314 15.353 0.0472492C15.143 0.494872 14.909 1.07836 14.7451 1.53932C12.9262 1.20966 11.0771 1.20966 9.25821 1.53932C9.07555 1.02845 8.86957 0.530323 8.64123 0.0472492C8.63349 0.0307305 8.62178 0.0174681 8.60767 0.00923181C8.59355 0.000995523 8.5777 -0.00182302 8.56223 0.0011525C6.84828 0.352942 5.20833 0.971608 3.67737 1.80984C3.6642 1.81654 3.65304 1.82797 3.64538 1.84259C0.533465 7.39238 -0.31951 12.8051 0.0994778 18.1499C0.100644 18.163 0.103993 18.1756 0.109322 18.1871C0.114652 18.1986 0.121849 18.2086 0.130477 18.2166C1.94682 19.8208 3.9727 21.0428 6.1233 21.8315C6.1383 21.8371 6.15433 21.8371 6.16932 21.8315C6.1843 21.8259 6.19754 21.8149 6.2073 21.8C6.67008 21.0492 7.08017 20.2527 7.43327 19.4187C7.43817 19.4073 7.44099 19.3948 7.44155 19.382C7.4421 19.3691 7.44038 19.3563 7.43649 19.3443C7.43261 19.3324 7.42665 19.3215 7.41901 19.3126C7.41138 19.3037 7.40226 19.2969 7.39227 19.2926C6.74629 18.9975 6.12039 18.6414 5.52032 18.2275C5.50954 18.22 5.50045 18.2094 5.49388 18.1967C5.4873 18.1839 5.48345 18.1693 5.48266 18.1543C5.48186 18.1393 5.48416 18.1242 5.48934 18.1106C5.49451 18.0969 5.50241 18.0849 5.51232 18.0759C5.63832 17.9631 5.76431 17.8454 5.88431 17.7277C5.89511 17.7171 5.90812 17.7104 5.92189 17.7083C5.93566 17.7061 5.94966 17.7087 5.96231 17.7156C9.88919 19.8554 14.1421 19.8554 18.023 17.7156C18.0356 17.7082 18.0498 17.7054 18.0637 17.7073C18.0777 17.7092 18.091 17.7159 18.102 17.7265C18.222 17.8454 18.347 17.9631 18.4739 18.0759C18.484 18.0848 18.492 18.0965 18.4973 18.1101C18.5027 18.1237 18.5052 18.1386 18.5046 18.1536C18.504 18.1687 18.5003 18.1833 18.4939 18.1962C18.4875 18.2091 18.4786 18.2198 18.4679 18.2275C17.87 18.6448 17.248 18.9978 16.595 19.2914C16.585 19.2958 16.5758 19.3027 16.5682 19.3118C16.5606 19.3208 16.5546 19.3317 16.5507 19.3438C16.5469 19.3559 16.5451 19.3688 16.5457 19.3817C16.5463 19.3946 16.5491 19.4072 16.554 19.4187C16.914 20.2521 17.326 21.0455 17.779 21.7988C17.7884 21.8142 17.8015 21.8258 17.8165 21.8319C17.8316 21.838 17.8478 21.8383 17.863 21.8327C20.0173 21.0462 22.0464 19.8236 23.8648 18.2166C23.8737 18.2091 23.8811 18.1993 23.8866 18.188C23.8921 18.1767 23.8956 18.1641 23.8968 18.1511C24.3968 11.9717 23.0588 6.60267 20.3479 1.84502C20.3412 1.82956 20.3302 1.8175 20.3169 1.81105ZM8.02025 14.8952C6.83828 14.8952 5.86331 13.5984 5.86331 12.0081C5.86331 10.4166 6.81928 9.121 8.02025 9.121C9.23021 9.121 10.1962 10.4275 10.1772 12.0081C10.1772 13.5997 9.22121 14.8952 8.02025 14.8952ZM15.995 14.8952C14.8121 14.8952 13.8381 13.5984 13.8381 12.0081C13.8381 10.4166 14.7931 9.121 15.995 9.121C17.205 9.121 18.171 10.4275 18.152 12.0081C18.152 13.5997 17.206 14.8952 15.995 14.8952Z" fill="#C4C4C4"/>
</svg>
