<svg width="21" height="21" viewBox="0 0 21 21" fill="none" xmlns="http://www.w3.org/2000/svg">
<path d="M21 2.44634C20.2277 2.85974 19.3981 3.13907 18.526 3.26532C19.4259 2.61482 20.0991 1.59101 20.4201 0.384929C19.5746 0.99161 18.6493 1.41865 17.6844 1.64748C17.0355 0.810469 16.176 0.255687 15.2393 0.0692639C14.3027 -0.11716 13.3413 0.0752051 12.5044 0.616492C11.6675 1.15778 11.002 2.0177 10.6111 3.06276C10.2203 4.10781 10.1259 5.27953 10.3428 6.39599C8.62963 6.29208 6.95372 5.75416 5.4238 4.81714C3.89389 3.88013 2.54416 2.56496 1.46221 0.956986C1.09227 1.72792 0.879547 2.62176 0.879547 3.5737C0.879135 4.43066 1.05382 5.27449 1.38811 6.03033C1.7224 6.78617 2.20595 7.43065 2.79587 7.90657C2.11172 7.88027 1.44267 7.65695 0.844402 7.25519V7.32223C0.844333 8.52415 1.18848 9.68908 1.81846 10.6194C2.44843 11.5496 3.32542 12.188 4.30063 12.426C3.66597 12.6335 3.00058 12.6641 2.35471 12.5154C2.62985 13.5496 3.16581 14.454 3.88755 15.1019C4.60929 15.7498 5.48068 16.1089 6.37972 16.1288C4.85354 17.5761 2.96871 18.3612 1.02845 18.3578C0.684753 18.3579 0.341346 18.3336 0 18.2851C1.96948 19.8149 4.2621 20.6268 6.60354 20.6236C14.5296 20.6236 18.8626 12.6931 18.8626 5.81499C18.8626 5.59153 18.858 5.36584 18.8497 5.14238C19.6925 4.40605 20.42 3.49425 20.9982 2.44969L21 2.44634Z" fill="#C4C4C4"/>
</svg>
